<?xml version="1.0" encoding="iso-8859-1"?>
<!-- Generator: Adobe Illustrator 19.0.0, SVG Export Plug-In . SVG Version: 6.00 Build 0)  -->
<svg version="1.1" id="Capa_1" xmlns="http://www.w3.org/2000/svg" xmlns:xlink="http://www.w3.org/1999/xlink" x="0px" y="0px"
	 viewBox="0 0 489.803 489.803" style="enable-background:new 0 0 489.803 489.803;" xml:space="preserve">
<g>
	<g>
		<g>
			<g>
				<ellipse cx="279.404" cy="197.451" rx="17.5" ry="20.2"/>
				<ellipse cx="210.304" cy="197.451" rx="17.8" ry="20.6"/>
				<path d="M327.504,363.051c20.6,0,41.1,0,61.7,0c7.4-20.9-5.8-63.6-27.2-93.9c-28.7,26.8-70.6,43.4-117.2,43.4
					s-88.4-16.7-117.2-43.1c-21.3,30.3-34.1,72.9-27.2,93.9c20.6,0,41.1,0,61.7,0c2.3,16.7,9.7,31.8,20.2,43.8v30.3l-29.9,36.5
					c-3.5,4.3-2.7,10.1,1.2,13.6c4.3,3.5,10.1,2.7,13.6-1.2l15.1-18.2v3.5c0,5.4,4.3,9.7,9.7,9.7s9.7-4.3,9.7-9.7v-3.5l15.1,18.2
					c1.9,2.3,7.8,5.8,13.6,1.2c4.3-3.5,4.7-9.3,1.2-13.6l-29.9-36.5v-14c12.8,7.8,27.5,12.4,43.4,12.4s30.6-4.7,43.4-12.4v14
					l-29.9,36.5c-3.5,4.3-2.7,10.1,1.2,13.6c4.3,3.5,10.1,2.7,13.6-1.2l15.1-18.2v3.5c0,5.4,4.3,9.7,9.7,9.7s9.7-4.3,9.7-9.7v-3.5
					l15.1,18.2c1.9,2.6,7.8,5.6,13.6,1.2c4.3-3.5,4.7-9.3,1.2-13.6l-29.9-36.5v-30.3
					C317.804,394.951,325.104,379.751,327.504,363.051z"/>
			</g>
		</g>
		<g>
			<path d="M269.704,72.151c29.1-24.8,50.4-19.4,51.6-19c5,1.6,10.5-1.2,12-6.2c1.6-5-1.2-10.5-6.2-12c-1.6-0.4-35.3-10.5-76.4,28.3
				c0.8-18.6,6.6-41.1,9.7-50.8c1.6-5-1.2-10.5-6.2-12c-5-1.6-10.5,1.2-12,6.2c-1.2,4.3-8.5,28.7-10.1,52l-15.5-15.5
				c-8.9-8.9-20.9-12-31.8-8.9c-20.9,6.2-23.3,29.1-21.3,40.7c0.8,5,5.8,8.9,10.9,7.8c5-0.8,8.9-5.8,7.8-10.9c0,0-2.3-16.3,7.8-19.4
				c4.3-1.2,9.3,0.4,13.2,4.3l15.9,15.5c-64.7,9.6-113.2,55-113.2,109.3c0,62.1,62.1,111.7,138.9,111.7s138.9-50,138.9-111.3
				C383.704,127.251,334.404,81.451,269.704,72.151z M290.604,251.751c-9.1,0-17.5-3.4-24.8-9.4l0,0l-20.9,47.3l-21-47.2v-0.1
				c-7.3,6-15.7,9.4-24.8,9.4c-25.2,0-45.8-26.8-45.8-59.7c-0.4-32.6,20.2-59.4,45.8-59.4c25.2,0,45.8,26.8,45.8,59.4
				c0-33,20.6-59.7,45.8-59.7s45.8,26.8,45.8,59.7C336.404,224.951,315.804,251.751,290.604,251.751z"/>
		</g>
	</g>
</g>
<g>
</g>
<g>
</g>
<g>
</g>
<g>
</g>
<g>
</g>
<g>
</g>
<g>
</g>
<g>
</g>
<g>
</g>
<g>
</g>
<g>
</g>
<g>
</g>
<g>
</g>
<g>
</g>
<g>
</g>
</svg>
